<svg xmlns="http://www.w3.org/2000/svg" version="1.1" xmlns:xlink="http://www.w3.org/1999/xlink" width="241" height="241"><svg width="241" height="241" viewBox="0 0 241 241" fill="none" xmlns="http://www.w3.org/2000/svg">
<rect width="241" height="241" fill="white"></rect>
<path d="M164 193.5C164 204.822 145.42 214 122.5 214C99.5802 214 81 204.822 81 193.5C81 182.178 99.5802 173 122.5 173C145.42 173 164 182.178 164 193.5Z" fill="#6E7CC5"></path>
<path d="M106.69 168.491C104.832 170.906 101.593 171.989 98.5447 171.835C95.4961 171.68 92.6023 170.454 89.9466 168.943C83.9923 165.575 78.8358 160.827 74.1557 155.889C69.559 151.045 65.4862 145.524 63.295 139.157C63.1759 138.812 63.0568 137.848 62.6162 137.717C62.5329 137.694 62.4495 137.741 62.3899 137.801C61.9731 138.3 61.7588 139.157 61.5325 139.752C61.0443 141.002 60.6275 142.287 60.3059 143.596C59.6629 146.214 59.3771 148.915 59.5319 151.605C59.5676 152.283 59.639 152.961 59.7343 153.64C59.7819 154.008 59.9487 154.58 59.4723 154.746C59.2937 154.806 59.1032 154.794 58.9245 154.758C57.948 154.58 57.1382 154.127 56.257 153.687C55.209 153.175 54.173 152.652 53.1607 152.081C51.2196 150.998 49.3261 149.784 47.647 148.308C44.9437 145.94 43.1813 143.406 41.3711 140.288C41.3235 140.24 41.2759 140.169 41.2163 140.133C41.002 140.014 40.7876 140.288 40.7043 140.526C36.5124 152.009 39.4062 166.908 46.73 176.488C54.7446 186.96 67.987 193.588 81.2414 193.159C88.196 192.933 95.1626 190.494 100.152 185.543C102.534 183.187 104.916 180.902 107.024 178.296C107.298 177.951 107.583 177.594 107.714 177.178C107.893 176.642 107.81 176.047 107.726 175.488C107.381 173.167 107.036 170.835 106.69 168.491Z" fill="#1D1C42"></path>
<mask id="SvgjsMask1083" style="mask-type:luminance" maskUnits="userSpaceOnUse" x="38" y="137" width="70" height="57">
<path d="M106.69 168.491C104.832 170.906 101.593 171.989 98.5447 171.835C95.4961 171.68 92.6023 170.454 89.9466 168.943C83.9923 165.575 78.8358 160.827 74.1557 155.889C69.559 151.045 65.4862 145.524 63.295 139.157C63.1759 138.812 63.0568 137.848 62.6162 137.717C62.5329 137.694 62.4495 137.741 62.3899 137.801C61.9731 138.3 61.7588 139.157 61.5325 139.752C61.0443 141.002 60.6275 142.287 60.3059 143.596C59.6629 146.214 59.3771 148.915 59.5319 151.605C59.5676 152.283 59.639 152.961 59.7343 153.64C59.7819 154.008 59.9487 154.58 59.4723 154.746C59.2937 154.806 59.1032 154.794 58.9245 154.758C57.948 154.58 57.1382 154.127 56.257 153.687C55.209 153.175 54.173 152.652 53.1607 152.081C51.2196 150.998 49.3261 149.784 47.647 148.308C44.9437 145.94 43.1813 143.406 41.3711 140.288C41.3235 140.24 41.2759 140.169 41.2163 140.133C41.002 140.014 40.7876 140.288 40.7043 140.526C36.5124 152.009 39.4062 166.908 46.73 176.488C54.7446 186.96 67.987 193.588 81.2414 193.159C88.196 192.933 95.1626 190.494 100.152 185.543C102.534 183.187 104.916 180.902 107.024 178.296C107.298 177.951 107.583 177.594 107.714 177.178C107.893 176.642 107.81 176.047 107.726 175.488C107.381 173.167 107.036 170.835 106.69 168.491Z" fill="white"></path>
</mask>
<g mask="url(#mask0_248_640)">
<path d="M80.896 156.781C81.0032 156.198 73.6913 155.127 73.2149 155.079C67.0105 154.58 60.2821 157.114 55.34 160.791C52.0294 163.243 50.0049 167.11 49.0403 171.049C48.4925 173.31 48.3377 175.643 48.3496 177.963C48.3496 178.641 48.0995 183.509 48.8141 183.77C48.8141 183.77 35.3334 178.868 35.1667 178.213C34.9762 177.559 35 123.651 35 123.651L48.4925 119.129L86.7789 125.734C86.7789 125.746 80.896 156.769 80.896 156.781Z" fill="#FFE6D4"></path>
</g>
<path d="M87.4458 164.457C87.4458 164.457 86.2668 173.596 87.4458 175.881C88.6248 178.154 91.6257 185.222 98.2827 178.273C104.94 171.323 101.891 167.408 101.891 167.408L87.4458 164.457Z" fill="#F2ECE0"></path>
<mask id="SvgjsMask1082" style="mask-type:luminance" maskUnits="userSpaceOnUse" x="86" y="164" width="17" height="18">
<path d="M87.4458 164.457C87.4458 164.457 86.2668 173.596 87.4458 175.881C88.6248 178.154 91.6257 185.222 98.2827 178.273C104.94 171.323 101.891 167.408 101.891 167.408L87.4458 164.457Z" fill="white"></path>
</mask>
<g mask="url(#mask1_248_640)">
<path d="M89.5298 179.379C89.2202 178.725 88.9701 178.046 88.7796 177.344C88.6843 176.987 88.5652 176.63 88.589 176.261C88.6247 175.893 88.6724 175.512 88.8748 175.167L88.9344 175.179C89.0654 175.547 89.1011 175.881 89.1845 176.226C89.244 176.559 89.2321 176.916 89.2559 177.261C89.3274 177.963 89.4345 178.665 89.5893 179.367L89.5298 179.379Z" fill="#2E2D47"></path>
</g>
<mask id="SvgjsMask1081" style="mask-type:luminance" maskUnits="userSpaceOnUse" x="86" y="164" width="17" height="18">
<path d="M87.4458 164.457C87.4458 164.457 86.2668 173.596 87.4458 175.881C88.6248 178.154 91.6257 185.222 98.2827 178.273C104.94 171.323 101.891 167.408 101.891 167.408L87.4458 164.457Z" fill="white"></path>
</mask>
<g mask="url(#mask2_248_640)">
<path d="M92.6261 181.259C92.3164 180.605 92.0663 179.927 91.8758 179.225C91.7805 178.868 91.6615 178.511 91.6853 178.142C91.721 177.773 91.7686 177.392 91.9711 177.047L92.0306 177.059C92.1616 177.428 92.1973 177.761 92.2807 178.106C92.3402 178.439 92.3283 178.796 92.3522 179.141C92.4236 179.843 92.5308 180.545 92.6856 181.248L92.6261 181.259Z" fill="#2E2D47"></path>
</g>
<path d="M97.5324 182.378C97.5324 182.378 97.6515 191.541 99.1282 195.682C99.8665 197.753 104.463 200.323 108.917 200.419C113.371 200.514 117.682 198.11 118.48 197.205C120.076 195.385 120.302 188.114 120.302 188.114L97.5324 182.378Z" fill="#1D1C42"></path>
<mask id="SvgjsMask1080" style="mask-type:luminance" maskUnits="userSpaceOnUse" x="97" y="182" width="24" height="19">
<path d="M97.5324 182.378C97.5324 182.378 97.6515 191.541 99.1282 195.682C99.8665 197.753 104.463 200.323 108.917 200.419C113.371 200.514 117.682 198.11 118.48 197.205C120.076 195.385 120.302 188.114 120.302 188.114L97.5324 182.378Z" fill="white"></path>
</mask>
<g mask="url(#mask3_248_640)">
<path d="M98.6043 193.183C98.6043 193.183 101.01 196.8 109.215 197.812C112.502 198.217 116.682 196.515 120.111 194.194C129.364 187.947 119.5 201.5 119.5 201.5L109.977 203.274L100.2 200.418L97.8659 193.992L98.6043 193.183Z" fill="#EFE9DD"></path>
</g>
<path d="M149.037 182.378C149.037 182.378 148.561 195.218 147.084 199.347C145.608 203.489 130.055 202.608 128.459 200.787C126.864 198.967 126.256 188.102 126.256 188.102L149.037 182.378Z" fill="#1D1C42"></path>
<mask id="SvgjsMask1079" style="mask-type:luminance" maskUnits="userSpaceOnUse" x="126" y="182" width="24" height="21">
<path d="M149.037 182.378C149.037 182.378 148.561 195.218 147.084 199.347C145.608 203.489 130.055 202.608 128.459 200.787C126.864 198.967 126.256 188.102 126.256 188.102L149.037 182.378Z" fill="white"></path>
</mask>
<g mask="url(#mask4_248_640)">
<path d="M147.966 196.753C147.966 196.753 136.688 202.227 126.459 197.764C116.217 193.314 129.5 203.5 129.5 203.5L146.382 203.988L148.716 197.562L147.966 196.753Z" fill="#EFE9DD"></path>
</g>
<path d="M158.457 157.424C157.243 147.856 141.988 137.67 141.988 137.67L136.569 134.933H123.422H110.287L104.559 138.788C102.832 139.252 101.7 141.085 100.581 142.335C99.2235 143.846 97.7825 145.25 96.4845 146.821C92.7452 151.331 89.6013 156.543 87.8269 162.148C87.4577 163.314 87.1481 165.718 87.3624 166.777C87.5887 167.86 93.7098 171.977 98.3184 172.061C97.6634 172.025 97.1752 185.674 97.8302 185.71C97.8302 185.71 110.727 193.255 123.434 193.1C136.14 193.255 149.037 185.71 149.037 185.71C150.252 181.152 147.513 162.874 147.513 162.874C155.111 162.743 158.457 157.424 158.457 157.424Z" fill="#FF6746"></path>
<path d="M123.589 158.59C123.208 158.59 123.088 158.554 122.707 158.554C121.255 158.519 116.777 158.197 115.05 157.436C112.68 156.4 111.049 154.401 108.155 152.414C106.833 151.509 105.595 150.724 103.999 150.248C103.618 150.129 103.261 149.974 102.879 149.879C95.2341 147.987 90.1491 148.546 83.6946 144.131C79.5503 141.287 76.0492 137.741 73.0363 133.588C69.8686 129.233 75.0608 128.959 76.6327 125.924C76.9662 125.282 76.3588 125.068 75.7753 124.544C73.2745 122.319 69.6661 121.212 67.7131 118.439C66.1174 116.19 66.8438 115.988 68.7135 112.787C69.9162 110.728 70.7498 108.479 71.4286 106.206C72.7029 101.958 73.4174 97.5429 74.6082 93.2589C75.549 89.8912 77.0257 86.6068 77.6926 83.1795C79.0145 76.3489 77.5973 69.2327 77.3115 62.3664C77.0138 55.036 76.8471 47.777 77.4306 40.4466C77.8236 35.5438 78.2761 28.1182 83.8732 26.238C86.7313 25.2741 89.8513 27.7017 91.8877 29.3915C97.3181 33.9016 101.605 39.8873 105.547 45.6945C108.298 49.7405 110.632 54.0245 113.038 58.2847C113.431 58.9749 114.443 58.4513 115.038 58.368C120.314 57.5588 124.994 57.2375 129.495 57.9634C132.663 58.4632 132.806 58.8797 133.604 58.5108C133.687 58.4632 133.747 58.3799 133.794 58.2966C136.2 54.0364 138.522 49.7524 141.285 45.7064C145.227 39.9111 149.514 33.9135 154.944 29.4034C156.981 27.7136 160.101 25.286 162.959 26.2499C168.556 28.1301 169.008 35.5676 169.401 40.4585C169.997 47.7889 169.83 55.0479 169.52 62.3783C169.235 69.2446 167.817 76.3727 169.139 83.1915C169.806 86.6187 171.283 89.9031 172.224 93.2708C173.414 97.5548 174.129 101.97 175.403 106.218C176.094 108.491 176.916 110.74 178.118 112.799C179.988 116 180.715 116.202 179.119 118.451C177.154 121.212 173.545 122.331 171.057 124.556C170.473 125.068 169.866 125.282 170.199 125.936C171.771 128.983 176.963 129.245 173.796 133.6C170.783 137.753 167.282 141.287 163.137 144.143C156.695 148.57 151.598 149.189 143.952 151.081C143.571 151.176 142.023 151.331 141.642 151.45C138.022 152.533 135.128 156.769 131.937 157.674C129.329 158.4 126.316 158.578 123.589 158.59Z" fill="#1D1C42"></path>
<path d="M166.758 168.503L158.112 155.329C157.457 154.33 157.743 152.997 158.731 152.354C158.731 152.354 163.411 149.296 163.411 149.284C165.4 147.987 167.484 150.177 168.592 151.64C169.354 152.652 170.128 153.651 170.842 154.687C171.854 156.15 172.855 157.709 173.688 159.28C174.248 160.327 174.879 161.375 175.213 162.529C175.403 163.195 175.475 163.933 175.308 164.611C175.106 165.432 174.546 165.968 173.855 166.42C173.141 166.884 172.438 167.348 171.723 167.812C171.057 168.241 170.402 168.681 169.735 169.11C168.746 169.764 167.401 169.49 166.758 168.503Z" fill="#FCB9DC"></path>
<path d="M167.571 170.527L156.568 153.744L128.845 171.893L139.848 188.676L167.571 170.527Z" fill="#FFDE34"></path>
<path d="M153.813 162.291C153.372 163.124 152.848 163.838 152.336 164.564C151.634 165.004 150.955 165.468 150.252 165.908L146.096 168.622L141.94 171.335L139.868 172.691C138.998 172.87 138.129 173.06 137.2 173.156C137.653 172.346 138.177 171.62 138.689 170.895L140.761 169.538L144.917 166.825L149.073 164.112C149.764 163.659 150.466 163.219 151.145 162.743C152.003 162.565 152.872 162.374 153.813 162.291Z" fill="#FCBF0A"></path>
<path d="M158.636 169.657C158.195 170.49 157.671 171.204 157.159 171.93C156.457 172.37 155.778 172.834 155.075 173.275L150.919 175.988L146.763 178.701L144.691 180.058C143.821 180.236 142.952 180.426 142.023 180.522C142.476 179.712 143 178.987 143.512 178.261L145.584 176.904L149.74 174.191L153.896 171.478C154.587 171.025 155.29 170.585 155.968 170.109C156.826 169.919 157.695 169.728 158.636 169.657Z" fill="#FCBF0A"></path>
<path d="M169.576 169.225L158.573 152.442L155.315 154.574L166.318 171.357L169.576 169.225Z" fill="#C5C4C4"></path>
<path d="M124.744 186.174C124.589 185.865 124.494 185.543 124.446 185.222C124.41 184.96 124.41 184.687 124.47 184.413C124.482 184.342 124.494 184.282 124.517 184.211L128.876 171.882L133.247 173.62C133.247 173.62 134.283 174.203 134.223 175.119C134.164 176.035 133.854 178.094 133.854 178.094C133.854 178.094 133.663 179.201 134.223 180.046L134.521 180.51C135.069 181.355 136.164 181.616 136.164 181.616C136.164 181.616 138.177 182.164 139.046 182.473C139.904 182.783 140.023 183.973 140.023 183.973L139.868 188.673C139.499 188.649 139.129 188.626 138.76 188.59C137.855 188.53 136.938 188.459 136.033 188.399C134.89 188.316 133.735 188.233 132.592 188.15C131.508 188.078 130.424 187.995 129.352 187.923C128.721 187.876 128.102 187.864 127.471 187.816C126.887 187.769 126.268 187.709 125.768 187.376C125.327 187.079 124.982 186.65 124.744 186.174Z" fill="#FFEDBF"></path>
<mask id="SvgjsMask1078" style="mask-type:luminance" maskUnits="userSpaceOnUse" x="124" y="171" width="17" height="18">
<path d="M124.744 186.174C124.589 185.865 124.494 185.543 124.446 185.222C124.41 184.96 124.41 184.687 124.47 184.413C124.482 184.342 124.494 184.282 124.517 184.211L128.876 171.882L133.247 173.62C133.247 173.62 134.283 174.203 134.223 175.119C134.164 176.035 133.854 178.094 133.854 178.094C133.854 178.094 133.663 179.201 134.223 180.046L134.521 180.51C135.069 181.355 136.164 181.616 136.164 181.616C136.164 181.616 138.177 182.164 139.046 182.473C139.904 182.783 140.023 183.973 140.023 183.973L139.868 188.673C139.499 188.649 139.129 188.626 138.76 188.59C137.855 188.53 136.938 188.459 136.033 188.399C134.89 188.316 133.735 188.233 132.592 188.15C131.508 188.078 130.424 187.995 129.352 187.923C128.721 187.876 128.102 187.864 127.471 187.816C126.887 187.769 126.268 187.709 125.768 187.376C125.327 187.079 124.982 186.65 124.744 186.174Z" fill="white"></path>
</mask>
<g mask="url(#mask5_248_640)">
<path d="M124.922 181.962C124.922 181.962 129.793 183.128 129.221 188.518C128.65 193.909 123.72 188.09 123.72 188.09L123.077 182.104L124.922 181.962Z" fill="#616160"></path>
</g>
<path d="M123.243 129.185L117.206 128.423C117.206 128.423 112.954 116.571 108.167 116.416C103.38 116.262 87.8983 118.534 87.8626 118.546C85.3618 118.915 83.3135 125.068 83.2301 126.805C83.0039 131.851 85.7071 137.003 89.637 139.824C94.0075 142.953 100.164 145.143 105.547 146.107C106.262 146.238 106.952 147.428 107.345 147.951C109.524 150.784 113.454 152.533 116.801 153.532C118.885 154.151 121.064 154.437 123.231 154.556C126.244 154.711 129.257 153.973 131.996 152.771C134.604 151.617 137.557 150.165 139.225 147.761C139.665 147.13 140.082 146.273 140.928 146.119C146.31 145.155 152.467 142.965 156.838 139.836C160.779 137.015 163.483 131.863 163.245 126.817C163.161 125.08 161.125 118.927 158.612 118.558C158.576 118.558 143.095 116.285 138.308 116.428C133.509 116.583 129.269 128.435 129.269 128.435L123.243 129.185Z" fill="url(#paint0_linear_248_640)"></path>
<path d="M149.276 87.6183C145.965 87.6064 142.535 88.6298 139.844 90.5576C137.296 92.3902 134.711 95.6151 134.664 98.8757C134.616 102.029 134.545 108.324 134.545 108.324C134.545 108.324 134.509 111.478 134.497 113.049C134.461 115.619 135.271 117.654 136.831 119.665C138.522 121.843 140.832 123.473 143.405 124.473C150.943 127.412 157.802 122.057 157.802 122.057C159.803 120.498 161.172 117.773 161.911 115.393C162.816 112.513 162.899 109.455 163.054 106.456C163.125 105.087 163.221 103.707 163.233 102.339C163.256 100.446 163.34 98.9352 162.613 97.1621C162.232 96.2577 161.78 95.3771 161.256 94.5441C159.886 92.3426 158.029 90.4148 155.718 89.1891C153.741 88.13 151.514 87.6302 149.276 87.6183Z" fill="white"></path>
<path d="M142.071 94.9844C142.107 94.9487 142.631 95.9126 142.678 95.984C143.512 97.2216 143.905 98.3997 143.536 99.6611C143.226 100.732 142.512 101.41 141.583 101.97C140.666 102.529 138.308 102.898 138.308 102.981V109.776C138.308 109.776 138.951 115.417 144.584 115.417C150.455 115.417 152.193 110.811 152.193 110.811L153.229 100.792C153.229 100.792 152.943 95.2105 147.061 94.0562C147.084 94.0681 143.405 93.604 142.071 94.9844Z" fill="#0A100E"></path>
<path d="M97.2228 87.6183C100.533 87.6064 103.963 88.6298 106.654 90.5576C109.203 92.3902 111.787 95.6151 111.835 98.8757C111.882 102.029 111.954 108.324 111.954 108.324C111.954 108.324 111.99 111.478 112.001 113.049C112.037 115.619 111.227 117.654 109.667 119.665C107.976 121.843 105.666 123.473 103.094 124.473C95.5556 127.412 88.6962 122.057 88.6962 122.057C86.6955 120.498 85.326 117.773 84.5877 115.393C83.6826 112.513 83.5993 109.455 83.4445 106.456C83.373 105.087 83.2778 103.707 83.2658 102.339C83.242 100.446 83.1587 98.9352 83.8851 97.1621C84.2662 96.2577 84.7187 95.3771 85.2427 94.5441C86.6122 92.3426 88.4699 90.4148 90.7802 89.1891C92.7571 88.13 94.984 87.6302 97.2228 87.6183Z" fill="white"></path>
<path d="M95.4008 95.8174C95.4365 95.7698 96.1391 96.6147 96.1986 96.6861C97.2585 97.7333 97.8778 98.8162 97.7706 100.125C97.6753 101.232 97.1156 102.041 96.3177 102.767C95.5199 103.493 93.2929 104.326 93.3167 104.409L94.6624 111.073C94.6624 111.073 96.413 116.476 101.927 115.369C107.691 114.215 108.476 109.36 108.476 109.36L107.512 99.3398C107.512 99.3398 106.13 93.9253 100.14 93.9491C100.129 93.9253 96.4249 94.199 95.4008 95.8174Z" fill="#0A100E"></path>
<path d="M123.196 135.635C122.445 135.516 121.659 135.325 120.969 134.992C119.385 134.231 118.087 132.767 116.955 131.458C116.431 130.851 115.919 130.232 115.431 129.59C114.943 128.959 114.443 128.245 114.836 127.424C115.777 125.472 118.194 125.091 120.099 124.937C121.124 124.853 122.183 124.818 123.219 124.889C124.255 124.818 125.28 124.853 126.304 124.937C128.209 125.091 130.627 125.484 131.567 127.424C131.96 128.245 131.472 128.959 130.972 129.59C130.484 130.22 129.972 130.851 129.448 131.458C128.316 132.767 127.018 134.231 125.434 134.992C124.732 135.325 123.946 135.528 123.196 135.635Z" fill="#0A100E"></path>
<path opacity="0.8" d="M125.184 128.019C126.75 128.019 128.019 127.555 128.019 126.984C128.019 126.412 126.75 125.948 125.184 125.948C123.619 125.948 122.35 126.412 122.35 126.984C122.35 127.555 123.619 128.019 125.184 128.019Z" fill="#575756"></path>
<path d="M137.458 62.2699C137.4 62.5013 142.02 64.0746 142.367 64.2018C144.439 64.919 146.535 65.59 148.491 66.5849C150.401 67.5566 151.987 68.9101 153.608 70.2752C155.24 71.6403 156.988 72.8549 158.574 74.2778C158.783 74.4629 160.137 70.0323 160.241 69.5001C161.295 64.1787 161.735 58.7762 161.851 53.3623C161.955 48.411 162.163 45.3801 160.681 40.6024C160.369 39.5959 159.836 38.3812 158.771 37.9763C156.629 37.1666 154.661 38.5779 153.18 39.9892C147.82 45.0562 144.161 51.6154 140.237 57.7698C139.299 59.2274 138.107 60.6735 137.458 62.2699Z" fill="#F5BFD9"></path>
<path d="M108.912 62.4666C108.669 61.865 97.8212 66.6543 96.6635 67.3831C93.4683 69.3844 90.933 72.1724 88.143 74.6712C87.9346 74.8563 86.4296 70.0438 86.3139 69.5117C85.2604 64.1903 84.8205 58.7878 84.7047 53.3738C84.6005 48.4226 84.3921 45.3917 85.8739 40.6139C86.1865 39.6075 86.7191 38.3928 87.7841 37.9879C89.2312 37.4442 90.852 38.3581 91.8939 39.2373C99.7661 45.8544 105.172 53.2929 108.912 62.4666Z" fill="#F5BFD9"></path>
<path d="M113.265 82.491C113.317 81.4868 109.748 80.4867 105.295 80.2572C100.842 80.0277 97.1895 80.6558 97.1377 81.66C97.0858 82.6642 100.654 83.6644 105.107 83.8938C109.561 84.1233 113.213 83.4953 113.265 82.491Z" fill="#5B68AE"></path>
<path d="M140.633 83.8899C145.088 83.6951 148.663 82.7229 148.619 81.7184C148.575 80.7139 144.928 80.0574 140.474 80.2521C136.019 80.4468 132.443 81.419 132.487 82.4236C132.531 83.4281 136.178 84.0846 140.633 83.8899Z" fill="#5B68AE"></path>
<defs>
<linearGradient id="SvgjsLinearGradient1077" x1="123.249" y1="154.569" x2="123.218" y2="109.114" gradientUnits="userSpaceOnUse">
<stop stop-color="#F0E8DB"></stop>
<stop offset="0.504808" stop-color="#FFF5D8"></stop>
<stop offset="1" stop-color="#FFCFD0"></stop>
</linearGradient>
</defs>
</svg><style>@media (prefers-color-scheme: light) { :root { filter: none; } }
@media (prefers-color-scheme: dark) { :root { filter: none; } }
</style></svg>