<svg width="15" height="17" viewBox="0 0 15 17" fill="none" xmlns="http://www.w3.org/2000/svg">
<path d="M7.5 -0.5C8.09263 -0.5 8.57143 -0.0251953 8.57143 0.5625V1.09375H9.10714C9.69978 1.09375 10.1786 1.56855 10.1786 2.15625C10.1786 2.74395 9.69978 3.21875 9.10714 3.21875H8.57143V4.8125H13.6607C14.4007 4.8125 15 5.40684 15 6.14062C15 6.3166 14.9665 6.48926 14.8962 6.65195L12.3214 12.7812H2.67857L0.103795 6.65195C0.0334821 6.48926 0 6.3166 0 6.14062C0 5.40684 0.59933 4.8125 1.33929 4.8125H6.42857V3.21875H5.89286C5.30022 3.21875 4.82143 2.74395 4.82143 2.15625C4.82143 1.56855 5.30022 1.09375 5.89286 1.09375H6.42857V0.5625C6.42857 -0.0251953 6.90737 -0.5 7.5 -0.5ZM1.29241 15.2184L2.67857 13.8438H12.3214L13.7076 15.2184C13.8482 15.3578 13.9286 15.5504 13.9286 15.7496C13.9286 16.1646 13.5904 16.5 13.1719 16.5H1.82812C1.4096 16.5 1.07143 16.1646 1.07143 15.7496C1.07143 15.5504 1.15179 15.3578 1.29241 15.2184Z" fill="url(#paint0_linear_671_4711)"/>
<defs>
<linearGradient id="paint0_linear_671_4711" x1="-1.91964" y1="-9.42623" x2="20.4962" y2="-6.78025" gradientUnits="userSpaceOnUse">
<stop offset="0.457518" stop-color="#FF3F3E"/>
<stop offset="1" stop-color="#FF7B7B"/>
</linearGradient>
</defs>
</svg>
