<svg width="13" height="13" viewBox="0 0 13 13" fill="none" xmlns="http://www.w3.org/2000/svg">
<ellipse cx="6.46012" cy="6.46005" rx="6.14706" ry="6.14706" fill="#FCFCFC"/>
<path d="M6.46 4.56855e-05C10.032 4.53732e-05 12.92 2.88805 12.92 6.46004C12.92 10.032 10.032 12.92 6.46 12.92C2.888 12.92 1.17505e-06 10.032 8.62775e-07 6.46005C5.505e-07 2.88805 2.888 4.59977e-05 6.46 4.56855e-05ZM6.46 12.16C9.614 12.16 12.16 9.61404 12.16 6.46004C12.16 3.30604 9.614 0.760045 6.46 0.760046C3.306 0.760046 0.760001 3.30605 0.760001 6.46005C0.760001 9.61405 3.306 12.16 6.46 12.16Z" fill="#FF3F3E"/>
<path d="M6.46007 2.88808L10.1461 6.57408L9.61407 7.10608L6.46007 3.95208L3.30608 7.10608L2.77408 6.57408L6.46007 2.88808Z" fill="url(#paint0_linear_637_948)"/>
<path d="M6.83992 9.88013L6.07992 9.88013L6.07992 3.42013L6.83992 3.42013L6.83992 9.88013Z" fill="url(#paint1_linear_637_948)"/>
<defs>
<linearGradient id="paint0_linear_637_948" x1="11.0895" y1="9.32083" x2="0.49838" y2="6.84449" gradientUnits="userSpaceOnUse">
<stop offset="0.457518" stop-color="#FF3F3E"/>
<stop offset="1" stop-color="#FF7B7B"/>
</linearGradient>
<linearGradient id="paint1_linear_637_948" x1="6.93718" y1="13.2721" x2="5.78591" y2="13.254" gradientUnits="userSpaceOnUse">
<stop offset="0.457518" stop-color="#FF3F3E"/>
<stop offset="1" stop-color="#FF7B7B"/>
</linearGradient>
</defs>
</svg>
